<svg xmlns="http://www.w3.org/2000/svg" xmlns:xlink="http://www.w3.org/1999/xlink" width="40" zoomAndPan="magnify" viewBox="0 0 30 30.000001" height="40" preserveAspectRatio="xMidYMid meet" version="1.0"><defs><clipPath id="c7fc94230f"><path d="M 1.734375 2 L 28 2 L 28 28 L 1.734375 28 Z M 1.734375 2 " clip-rule="nonzero"/></clipPath><clipPath id="a5a9b34e3e"><path d="M 3.386719 9.582031 L 4.839844 9.582031 L 4.839844 11 L 3.386719 11 Z M 3.386719 9.582031 " clip-rule="nonzero"/></clipPath></defs><g clip-path="url(#c7fc94230f)"><path fill="#202020" d="M 14.609375 27.871094 C 7.5 27.871094 1.734375 22.105469 1.734375 14.996094 C 1.734375 7.890625 7.5 2.125 14.609375 2.125 C 21.714844 2.125 27.480469 7.890625 27.480469 14.996094 C 27.480469 22.105469 21.714844 27.871094 14.609375 27.871094 Z M 14.609375 25.53125 C 20.425781 25.53125 25.140625 20.8125 25.140625 14.996094 C 25.140625 9.183594 20.425781 4.464844 14.609375 4.464844 C 8.792969 4.464844 4.078125 9.183594 4.078125 14.996094 C 4.078125 20.8125 8.792969 25.53125 14.609375 25.53125 Z M 17.394531 12.960938 C 17.316406 12.636719 17.199219 12.339844 17.054688 12.070312 C 16.90625 11.804688 16.71875 11.566406 16.484375 11.363281 C 16.261719 11.167969 15.992188 11.015625 15.679688 10.90625 C 15.375 10.796875 15.015625 10.742188 14.609375 10.742188 C 14.015625 10.742188 13.503906 10.859375 13.074219 11.101562 C 12.640625 11.339844 12.285156 11.664062 12.011719 12.066406 C 11.742188 12.46875 11.542969 12.917969 11.414062 13.429688 C 11.28125 13.941406 11.214844 14.46875 11.214844 14.996094 C 11.214844 15.527344 11.28125 16.050781 11.414062 16.5625 C 11.542969 17.074219 11.742188 17.527344 12.011719 17.929688 C 12.285156 18.332031 12.640625 18.65625 13.074219 18.890625 C 13.503906 19.136719 14.015625 19.253906 14.609375 19.253906 C 15.046875 19.253906 15.4375 19.179688 15.765625 19.027344 C 16.101562 18.871094 16.386719 18.667969 16.632812 18.398438 C 16.871094 18.136719 17.058594 17.824219 17.191406 17.472656 C 17.328125 17.109375 17.417969 16.734375 17.460938 16.324219 L 19.371094 16.324219 C 19.324219 16.996094 19.179688 17.605469 18.9375 18.160156 C 18.691406 18.710938 18.363281 19.183594 17.941406 19.585938 C 17.527344 19.988281 17.035156 20.300781 16.472656 20.519531 C 15.90625 20.738281 15.292969 20.847656 14.609375 20.847656 C 13.78125 20.847656 13.03125 20.695312 12.367188 20.386719 C 11.703125 20.082031 11.140625 19.660156 10.683594 19.128906 C 10.226562 18.59375 9.871094 17.976562 9.628906 17.265625 C 9.386719 16.558594 9.261719 15.800781 9.261719 14.996094 C 9.261719 14.203125 9.386719 13.453125 9.628906 12.742188 C 9.871094 12.035156 10.226562 11.414062 10.683594 10.882812 C 11.140625 10.351562 11.703125 9.925781 12.367188 9.613281 C 13.03125 9.304688 13.78125 9.144531 14.609375 9.144531 C 15.238281 9.144531 15.828125 9.230469 16.375 9.402344 C 16.929688 9.578125 17.417969 9.828125 17.839844 10.15625 C 18.265625 10.480469 18.605469 10.882812 18.867188 11.351562 C 19.125 11.820312 19.289062 12.359375 19.351562 12.960938 Z M 17.394531 12.960938 " fill-opacity="1" fill-rule="nonzero"/></g><g clip-path="url(#a5a9b34e3e)"><path fill="#202020" d="M 3.964844 9.582031 C 4.285156 9.582031 4.542969 9.839844 4.542969 10.160156 C 4.542969 10.476562 4.285156 10.738281 3.964844 10.738281 C 3.644531 10.738281 3.386719 10.476562 3.386719 10.160156 C 3.386719 9.839844 3.644531 9.582031 3.964844 9.582031 Z M 3.964844 9.582031 " fill-opacity="1" fill-rule="evenodd"/></g></svg>