<svg xmlns="http://www.w3.org/2000/svg" xmlns:xlink="http://www.w3.org/1999/xlink" width="40" zoomAndPan="magnify" viewBox="0 0 30 30.000001" height="40" preserveAspectRatio="xMidYMid meet" version="1.0"><defs><clipPath id="742546618c"><path d="M 0.484375 4.171875 L 29.515625 4.171875 L 29.515625 25 L 0.484375 25 Z M 0.484375 4.171875 " clip-rule="nonzero"/></clipPath></defs><g clip-path="url(#742546618c)"><path fill="#202020" d="M 18.582031 15.519531 L 28.820312 24.300781 C 28.449219 24.648438 27.949219 24.863281 27.394531 24.863281 L 2.59375 24.863281 C 2.039062 24.863281 1.539062 24.648438 1.164062 24.300781 L 11.410156 15.519531 L 14.996094 18.65625 Z M 28.824219 4.730469 C 28.453125 4.386719 27.953125 4.171875 27.398438 4.171875 L 2.59375 4.171875 C 2.042969 4.171875 1.542969 4.386719 1.171875 4.738281 L 14.996094 16.585938 Z M 0.511719 5.988281 L 0.511719 23.175781 L 10.511719 14.679688 Z M 19.480469 14.679688 L 29.480469 23.175781 L 29.480469 5.980469 Z M 19.480469 14.679688 " fill-opacity="1" fill-rule="nonzero"/></g></svg>