<svg xmlns="http://www.w3.org/2000/svg" xmlns:xlink="http://www.w3.org/1999/xlink" width="40" zoomAndPan="magnify" viewBox="0 0 30 30.000001" height="40" preserveAspectRatio="xMidYMid meet" version="1.0"><defs><clipPath id="39b5e497ee"><path d="M 2.367188 2 L 27.769531 2 L 27.769531 27.15625 L 2.367188 27.15625 Z M 2.367188 2 " clip-rule="nonzero"/></clipPath><clipPath id="dbfe5350fe"><path d="M 11 24 L 22 24 L 22 28 L 11 28 Z M 11 24 " clip-rule="nonzero"/></clipPath><clipPath id="835601e3be"><path d="M 11.878906 25.109375 L 21.78125 24.714844 L 21.898438 27.664062 L 11.996094 28.058594 Z M 11.878906 25.109375 " clip-rule="nonzero"/></clipPath><clipPath id="251933070f"><path d="M 13.101562 25.242188 C 21.296875 24.996094 21.800781 25.613281 21.816406 26.011719 C 21.910156 26.324219 21.609375 26.816406 21.296875 26.988281 C 20.984375 27.160156 20.1875 27.113281 19.859375 26.886719 C 19.609375 26.578125 19.417969 25.789062 19.5625 25.464844 C 19.710938 25.136719 20.175781 24.800781 20.492188 24.789062 C 20.890625 24.773438 21.625 25.140625 21.714844 25.457031 C 21.890625 25.847656 21.605469 26.65625 21.0625 27.078125 C 19.902344 27.921875 14.566406 28.050781 13.195312 27.628906 C 12.546875 27.414062 11.976562 27.039062 11.960938 26.640625 C 11.863281 26.246094 13.101562 25.242188 13.101562 25.242188 " clip-rule="nonzero"/></clipPath></defs><g clip-path="url(#39b5e497ee)"><path fill="#202020" d="M 20.476562 27.265625 C 20.308594 27.265625 20.144531 27.234375 19.992188 27.171875 C 19.835938 27.105469 19.699219 27.015625 19.582031 26.898438 C 19.464844 26.777344 19.371094 26.644531 19.308594 26.488281 C 19.242188 26.332031 19.210938 26.171875 19.210938 26.003906 L 19.210938 22.722656 C 19.296875 21.921875 19.066406 21.222656 18.53125 20.625 C 18.371094 20.453125 18.265625 20.25 18.21875 20.015625 C 18.175781 19.785156 18.191406 19.558594 18.273438 19.335938 C 18.351562 19.113281 18.488281 18.929688 18.671875 18.78125 C 18.855469 18.632812 19.066406 18.546875 19.300781 18.515625 C 22.382812 18.148438 25.222656 17.164062 25.222656 11.824219 C 25.222656 10.804688 24.941406 9.871094 24.375 9.019531 C 23.847656 8.222656 23.671875 7.355469 23.859375 6.417969 C 23.972656 5.824219 23.972656 5.230469 23.859375 4.636719 C 22.90625 4.960938 22.027344 5.417969 21.21875 6.015625 C 20.894531 6.246094 20.542969 6.308594 20.160156 6.203125 C 17.835938 5.546875 15.511719 5.546875 13.1875 6.203125 C 12.804688 6.308594 12.453125 6.246094 12.128906 6.015625 C 11.3125 5.410156 10.425781 4.953125 9.464844 4.636719 C 9.34375 5.230469 9.34375 5.824219 9.464844 6.417969 C 9.636719 7.367188 9.453125 8.242188 8.921875 9.046875 C 8.359375 9.898438 8.074219 10.839844 8.074219 11.863281 C 8.074219 16.773438 10.449219 18.085938 14.007812 18.542969 C 14.246094 18.570312 14.460938 18.660156 14.644531 18.8125 C 14.832031 18.960938 14.964844 19.148438 15.042969 19.375 C 15.207031 19.847656 15.117188 20.269531 14.78125 20.636719 C 14.261719 21.191406 14.027344 21.851562 14.085938 22.609375 L 14.085938 26.003906 C 14.085938 26.171875 14.054688 26.332031 13.988281 26.488281 C 13.925781 26.644531 13.832031 26.777344 13.714844 26.898438 C 13.597656 27.015625 13.460938 27.105469 13.304688 27.171875 C 13.152344 27.234375 12.988281 27.265625 12.824219 27.265625 C 12.65625 27.265625 12.492188 27.234375 12.339844 27.171875 C 12.183594 27.105469 12.046875 27.015625 11.929688 26.898438 C 11.8125 26.777344 11.71875 26.644531 11.65625 26.488281 C 11.589844 26.332031 11.558594 26.171875 11.558594 26.003906 L 11.558594 25.285156 C 10.9375 25.355469 10.320312 25.351562 9.699219 25.269531 C 9.082031 25.1875 8.480469 25.03125 7.902344 24.800781 C 7.320312 24.570312 6.777344 24.273438 6.269531 23.910156 C 5.761719 23.542969 5.308594 23.121094 4.90625 22.644531 C 4.488281 22.183594 4 21.8125 3.441406 21.535156 C 3.277344 21.492188 3.128906 21.421875 2.996094 21.320312 C 2.859375 21.21875 2.75 21.097656 2.664062 20.953125 C 2.582031 20.808594 2.527344 20.652344 2.503906 20.488281 C 2.480469 20.320312 2.488281 20.15625 2.53125 19.992188 C 2.570312 19.832031 2.644531 19.683594 2.746094 19.550781 C 2.84375 19.414062 2.96875 19.304688 3.113281 19.21875 C 3.257812 19.132812 3.414062 19.082031 3.578125 19.058594 C 3.746094 19.035156 3.910156 19.042969 4.070312 19.085938 C 5.058594 19.445312 5.898438 20.015625 6.597656 20.800781 C 7.859375 22.066406 9.121094 23.175781 11.523438 22.722656 C 11.480469 22.035156 11.574219 21.371094 11.8125 20.726562 C 9.210938 20.070312 5.5 18.199219 5.5 11.886719 C 5.496094 10.359375 5.914062 8.957031 6.761719 7.679688 C 6.921875 7.441406 6.976562 7.179688 6.925781 6.898438 C 6.664062 5.507812 6.804688 4.15625 7.34375 2.84375 C 7.496094 2.480469 7.757812 2.242188 8.136719 2.125 C 8.566406 2 10.105469 1.746094 13.023438 3.640625 C 15.417969 3.0625 17.816406 3.0625 20.210938 3.640625 C 23.125 1.746094 24.667969 1.988281 25.085938 2.125 C 25.460938 2.242188 25.726562 2.480469 25.878906 2.84375 C 26.417969 4.160156 26.558594 5.515625 26.296875 6.910156 C 26.242188 7.171875 26.289062 7.410156 26.433594 7.632812 C 27.28125 8.910156 27.703125 10.316406 27.699219 11.847656 C 27.699219 18.25 24.011719 20.109375 21.382812 20.6875 C 21.617188 21.371094 21.710938 22.074219 21.660156 22.796875 L 21.660156 26.003906 C 21.664062 26.164062 21.632812 26.320312 21.574219 26.472656 C 21.515625 26.621094 21.429688 26.753906 21.320312 26.871094 C 21.207031 26.988281 21.082031 27.082031 20.933594 27.152344 C 20.789062 27.21875 20.636719 27.257812 20.476562 27.265625 Z M 20.476562 27.265625 " fill-opacity="1" fill-rule="nonzero"/></g><g clip-path="url(#dbfe5350fe)"><g clip-path="url(#835601e3be)"><g clip-path="url(#251933070f)"><path fill="#202020" d="M 8.589844 22.074219 L 24.886719 21.425781 L 25.246094 30.417969 L 8.949219 31.066406 Z M 8.589844 22.074219 " fill-opacity="1" fill-rule="nonzero"/></g></g></g></svg>