<svg xmlns="http://www.w3.org/2000/svg" xmlns:xlink="http://www.w3.org/1999/xlink" width="400" zoomAndPan="magnify" viewBox="0 0 300 74.999997" height="100" preserveAspectRatio="xMidYMid meet" version="1.0"><defs><g/></defs><g fill="#ff8080" fill-opacity="1"><g transform="translate(7.500005, 67.939326)"><g><path d="M 75.421875 -3.15625 C 75.660156 -2.789062 75.78125 -2.367188 75.78125 -1.890625 C 75.78125 -1.410156 75.582031 -0.972656 75.1875 -0.578125 C 74.800781 -0.191406 74.335938 0 73.796875 0 L 50.578125 0 C 49.203125 0 48.125 -0.476562 47.34375 -1.4375 L 31.6875 -20.796875 L 31.6875 -2.4375 C 31.6875 -1.769531 31.441406 -1.195312 30.953125 -0.71875 C 30.472656 -0.238281 29.90625 0 29.25 0 L 10.703125 0 C 10.046875 0 9.476562 -0.238281 9 -0.71875 C 8.519531 -1.195312 8.28125 -1.769531 8.28125 -2.4375 L 8.28125 -60.5625 C 8.28125 -61.226562 8.519531 -61.800781 9 -62.28125 C 9.476562 -62.757812 10.046875 -63 10.703125 -63 L 29.25 -63 C 29.90625 -63 30.472656 -62.757812 30.953125 -62.28125 C 31.441406 -61.800781 31.6875 -61.226562 31.6875 -60.5625 L 31.6875 -43.65625 L 45.90625 -61.46875 C 46.800781 -62.488281 47.910156 -63 49.234375 -63 L 70.921875 -63 C 71.460938 -63 71.925781 -62.800781 72.3125 -62.40625 C 72.707031 -62.019531 72.90625 -61.570312 72.90625 -61.0625 C 72.90625 -60.550781 72.753906 -60.117188 72.453125 -59.765625 L 51.125 -33.75 Z M 75.421875 -3.15625 "/></g></g></g><g fill="#202020" fill-opacity="1"><g transform="translate(79.326554, 67.939553)"><g><path d="M 9.265625 -63 L 37.984375 -63 C 44.578125 -63 50.300781 -62.128906 55.15625 -60.390625 C 60.019531 -58.648438 63.953125 -55.707031 66.953125 -51.5625 C 69.953125 -47.425781 71.453125 -42.269531 71.453125 -36.09375 L 71.453125 -26.90625 C 71.453125 -17.3125 68.210938 -10.320312 61.734375 -5.9375 C 55.796875 -1.976562 47.878906 0 37.984375 0 L 9.265625 0 C 8.609375 0 8.039062 -0.238281 7.5625 -0.71875 C 7.082031 -1.195312 6.84375 -1.769531 6.84375 -2.4375 L 6.84375 -60.5625 C 6.84375 -61.226562 7.082031 -61.800781 7.5625 -62.28125 C 8.039062 -62.757812 8.609375 -63 9.265625 -63 Z M 30.234375 -45.453125 L 30.234375 -17.546875 L 38.4375 -17.546875 C 41.25 -17.546875 43.476562 -18.21875 45.125 -19.5625 C 46.78125 -20.914062 47.609375 -22.828125 47.609375 -25.296875 L 47.609375 -37.703125 C 47.609375 -40.171875 46.78125 -42.078125 45.125 -43.421875 C 43.476562 -44.773438 41.25 -45.453125 38.4375 -45.453125 Z M 30.234375 -45.453125 "/></g></g></g><g fill="#202020" fill-opacity="1"><g transform="translate(148.436778, 67.939553)"><g><path d="M 62.234375 -5.65625 C 56.328125 -1.28125 48.332031 0.90625 38.25 0.90625 C 28.164062 0.90625 20.171875 -1.28125 14.265625 -5.65625 C 8.359375 -10.039062 5.40625 -16.882812 5.40625 -26.1875 L 5.40625 -60.5625 C 5.40625 -61.226562 5.644531 -61.800781 6.125 -62.28125 C 6.601562 -62.757812 7.171875 -63 7.828125 -63 L 26.640625 -63 C 27.296875 -63 27.863281 -62.757812 28.34375 -62.28125 C 28.820312 -61.800781 29.0625 -61.226562 29.0625 -60.5625 L 29.0625 -24.75 C 29.0625 -22.289062 29.882812 -20.398438 31.53125 -19.078125 C 33.1875 -17.753906 35.425781 -17.09375 38.25 -17.09375 C 41.070312 -17.09375 43.304688 -17.753906 44.953125 -19.078125 C 46.609375 -20.398438 47.4375 -22.289062 47.4375 -24.75 L 47.4375 -60.5625 C 47.4375 -61.226562 47.675781 -61.800781 48.15625 -62.28125 C 48.632812 -62.757812 49.203125 -63 49.859375 -63 L 68.671875 -63 C 69.328125 -63 69.894531 -62.757812 70.375 -62.28125 C 70.851562 -61.800781 71.09375 -61.226562 71.09375 -60.5625 L 71.09375 -26.1875 C 71.09375 -16.882812 68.140625 -10.039062 62.234375 -5.65625 Z M 62.234375 -5.65625 "/></g></g></g><g fill="#202020" fill-opacity="1"><g transform="translate(217.547002, 67.939553)"><g><path d="M 49.6875 -63 L 66.421875 -63 C 67.078125 -63 67.644531 -62.757812 68.125 -62.28125 C 68.601562 -61.800781 68.84375 -61.226562 68.84375 -60.5625 L 68.84375 -2.4375 C 68.84375 -1.769531 68.601562 -1.195312 68.125 -0.71875 C 67.644531 -0.238281 67.078125 0 66.421875 0 L 51.9375 0 C 50.488281 0 49.285156 -0.628906 48.328125 -1.890625 L 28.703125 -26.90625 L 28.703125 -2.4375 C 28.703125 -1.769531 28.460938 -1.195312 27.984375 -0.71875 C 27.503906 -0.238281 26.9375 0 26.28125 0 L 9.546875 0 C 8.878906 0 8.304688 -0.238281 7.828125 -0.71875 C 7.347656 -1.195312 7.109375 -1.769531 7.109375 -2.4375 L 7.109375 -60.5625 C 7.109375 -61.226562 7.347656 -61.800781 7.828125 -62.28125 C 8.304688 -62.757812 8.878906 -63 9.546875 -63 L 24.125 -63 C 25.5625 -63 26.726562 -62.398438 27.625 -61.203125 L 47.25 -34.109375 L 47.25 -60.5625 C 47.25 -61.226562 47.488281 -61.800781 47.96875 -62.28125 C 48.445312 -62.757812 49.019531 -63 49.6875 -63 Z M 49.6875 -63 "/></g></g></g></svg>