<svg xmlns="http://www.w3.org/2000/svg" xmlns:xlink="http://www.w3.org/1999/xlink" width="40" zoomAndPan="magnify" viewBox="0 0 30 30.000001" height="40" preserveAspectRatio="xMidYMid meet" version="1.0"><defs><clipPath id="ece2973682"><path d="M 0.484375 9 L 8 9 L 8 29 L 0.484375 29 Z M 0.484375 9 " clip-rule="nonzero"/></clipPath><clipPath id="2ae4a1b2cb"><path d="M 0.484375 0 L 9 0 L 9 8 L 0.484375 8 Z M 0.484375 0 " clip-rule="nonzero"/></clipPath><clipPath id="740d6e5333"><path d="M 10 8 L 29.515625 8 L 29.515625 29 L 10 29 Z M 10 8 " clip-rule="nonzero"/></clipPath></defs><g clip-path="url(#ece2973682)"><path fill="#202020" d="M 7.242188 9.339844 L 1.414062 9.339844 C 1.15625 9.339844 0.945312 9.550781 0.945312 9.808594 L 0.945312 28.53125 C 0.945312 28.789062 1.15625 29 1.414062 29 L 7.242188 29 C 7.5 29 7.710938 28.789062 7.710938 28.53125 L 7.710938 9.808594 C 7.710938 9.550781 7.5 9.339844 7.242188 9.339844 Z M 7.242188 9.339844 " fill-opacity="1" fill-rule="nonzero"/></g><g clip-path="url(#2ae4a1b2cb)"><path fill="#202020" d="M 4.328125 0.03125 C 2.210938 0.03125 0.484375 1.753906 0.484375 3.875 C 0.484375 5.992188 2.210938 7.71875 4.328125 7.71875 C 6.449219 7.71875 8.171875 5.992188 8.171875 3.875 C 8.171875 1.753906 6.449219 0.03125 4.328125 0.03125 Z M 4.328125 0.03125 " fill-opacity="1" fill-rule="nonzero"/></g><g clip-path="url(#740d6e5333)"><path fill="#202020" d="M 22.066406 8.875 C 19.726562 8.875 17.996094 9.882812 16.945312 11.023438 L 16.945312 9.808594 C 16.945312 9.550781 16.734375 9.339844 16.476562 9.339844 L 10.894531 9.339844 C 10.636719 9.339844 10.425781 9.550781 10.425781 9.808594 L 10.425781 28.53125 C 10.425781 28.789062 10.636719 29 10.894531 29 L 16.710938 29 C 16.96875 29 17.179688 28.789062 17.179688 28.53125 L 17.179688 19.269531 C 17.179688 16.144531 18.027344 14.929688 20.203125 14.929688 C 22.574219 14.929688 22.761719 16.878906 22.761719 19.429688 L 22.761719 28.53125 C 22.761719 28.789062 22.972656 29 23.230469 29 L 29.046875 29 C 29.304688 29 29.515625 28.789062 29.515625 28.53125 L 29.515625 18.261719 C 29.515625 13.621094 28.632812 8.875 22.066406 8.875 Z M 22.066406 8.875 " fill-opacity="1" fill-rule="nonzero"/></g></svg>