<svg xmlns="http://www.w3.org/2000/svg" xmlns:xlink="http://www.w3.org/1999/xlink" width="40" zoomAndPan="magnify" viewBox="0 0 30 30.000001" height="40" preserveAspectRatio="xMidYMid meet" version="1.0"><defs><clipPath id="2ddb582c3d"><path d="M 3.386719 6.425781 L 26.613281 6.425781 L 26.613281 7.878906 L 3.386719 7.878906 Z M 3.386719 6.425781 " clip-rule="nonzero"/></clipPath><clipPath id="57d29072b4"><path d="M 3.386719 13.761719 L 26.613281 13.761719 L 26.613281 15.210938 L 3.386719 15.210938 Z M 3.386719 13.761719 " clip-rule="nonzero"/></clipPath><clipPath id="05ba1eacc5"><path d="M 3.386719 21.085938 L 26.613281 21.085938 L 26.613281 22.539062 L 3.386719 22.539062 Z M 3.386719 21.085938 " clip-rule="nonzero"/></clipPath></defs><g clip-path="url(#2ddb582c3d)"><path fill="#000000" d="M 25.636719 6.425781 L 4.363281 6.425781 C 3.941406 6.425781 3.601562 6.75 3.601562 7.152344 C 3.601562 7.550781 3.941406 7.878906 4.363281 7.878906 L 25.636719 7.878906 C 26.058594 7.878906 26.398438 7.550781 26.398438 7.152344 C 26.398438 6.75 26.058594 6.425781 25.636719 6.425781 Z M 25.636719 6.425781 " fill-opacity="1" fill-rule="nonzero"/></g><g clip-path="url(#57d29072b4)"><path fill="#000000" d="M 25.636719 13.761719 L 4.363281 13.761719 C 3.941406 13.761719 3.601562 14.085938 3.601562 14.484375 C 3.601562 14.886719 3.941406 15.210938 4.363281 15.210938 L 25.636719 15.210938 C 26.058594 15.210938 26.398438 14.886719 26.398438 14.484375 C 26.398438 14.085938 26.058594 13.761719 25.636719 13.761719 Z M 25.636719 13.761719 " fill-opacity="1" fill-rule="nonzero"/></g><g clip-path="url(#05ba1eacc5)"><path fill="#000000" d="M 25.636719 21.085938 L 4.363281 21.085938 C 3.941406 21.085938 3.601562 21.410156 3.601562 21.8125 C 3.601562 22.214844 3.941406 22.539062 4.363281 22.539062 L 25.636719 22.539062 C 26.058594 22.539062 26.398438 22.214844 26.398438 21.8125 C 26.398438 21.410156 26.058594 21.085938 25.636719 21.085938 Z M 25.636719 21.085938 " fill-opacity="1" fill-rule="nonzero"/></g></svg>