<svg xmlns="http://www.w3.org/2000/svg" xmlns:xlink="http://www.w3.org/1999/xlink" width="40" zoomAndPan="magnify" viewBox="0 0 30 30.000001" height="40" preserveAspectRatio="xMidYMid meet" version="1.0"><defs><clipPath id="314aeb203a"><path d="M 5 4 L 25 4 L 25 24 L 5 24 Z M 5 4 " clip-rule="nonzero"/></clipPath><clipPath id="d2a66087ea"><path d="M 4.996094 23.277344 L 23.984375 4.289062 L 25.011719 5.316406 L 6.023438 24.304688 Z M 4.996094 23.277344 " clip-rule="nonzero"/></clipPath><clipPath id="f30f3ea782"><path d="M 4.996094 23.277344 L 23.984375 4.289062 L 25.011719 5.316406 L 6.023438 24.304688 Z M 4.996094 23.277344 " clip-rule="nonzero"/></clipPath><clipPath id="e678271e24"><path d="M 5 4 L 25 4 L 25 25 L 5 25 Z M 5 4 " clip-rule="nonzero"/></clipPath><clipPath id="9ceaf6646d"><path d="M 6.066406 4.335938 L 25.054688 23.324219 L 24.027344 24.351562 L 5.039062 5.359375 Z M 6.066406 4.335938 " clip-rule="nonzero"/></clipPath><clipPath id="be4e06c6a5"><path d="M 6.066406 4.335938 L 25.054688 23.324219 L 24.027344 24.351562 L 5.039062 5.359375 Z M 6.066406 4.335938 " clip-rule="nonzero"/></clipPath></defs><g clip-path="url(#314aeb203a)"><g clip-path="url(#d2a66087ea)"><g clip-path="url(#f30f3ea782)"><path fill="#ff8080" d="M 23.113281 5.164062 L 5.824219 22.453125 C 5.480469 22.792969 5.480469 23.34375 5.824219 23.6875 C 6.164062 24.027344 6.714844 24.027344 7.058594 23.6875 L 24.347656 6.398438 C 24.6875 6.054688 24.6875 5.503906 24.347656 5.164062 C 24.003906 4.820312 23.453125 4.820312 23.113281 5.164062 Z M 23.113281 5.164062 " fill-opacity="1" fill-rule="nonzero"/></g></g></g><g clip-path="url(#e678271e24)"><g clip-path="url(#9ceaf6646d)"><g clip-path="url(#be4e06c6a5)"><path fill="#ff8080" d="M 24.320312 22.589844 L 6.917969 5.1875 C 6.578125 4.84375 6.019531 4.84375 5.675781 5.1875 C 5.332031 5.53125 5.332031 6.089844 5.675781 6.429688 L 23.078125 23.832031 C 23.421875 24.175781 23.976562 24.175781 24.320312 23.832031 C 24.664062 23.488281 24.664062 22.933594 24.320312 22.589844 Z M 24.320312 22.589844 " fill-opacity="1" fill-rule="nonzero"/></g></g></g></svg>